<?xml version="1.0" encoding="UTF-8" standalone="no"?>
<!DOCTYPE svg PUBLIC "-//W3C//DTD SVG 1.1//EN" "http://www.w3.org/Graphics/SVG/1.1/DTD/svg11.dtd">
<svg width="100%" height="100%" viewBox="0 0 1000 1000" version="1.1" xmlns="http://www.w3.org/2000/svg" xmlns:xlink="http://www.w3.org/1999/xlink" xml:space="preserve" xmlns:serif="http://www.serif.com/" style="fill-rule:evenodd;clip-rule:evenodd;stroke-linejoin:round;stroke-miterlimit:2;">
    <g transform="matrix(1,0,0,1,-2157.13,0)">
        <g id="address" transform="matrix(1,0,0,1,2157.13,0)">
            <rect x="0" y="0" width="1000" height="1000" style="fill:none;"/>
            <g transform="matrix(1.05049,0,0,1.05049,-25.2462,-1.15846)">
                <g transform="matrix(1,0,0,1,-2157.13,15)">
                    <path d="M3024.21,336.865L3024.21,143.994L2915.71,143.994L2915.71,228.362L3024.21,336.865Z"/>
                </g>
                <g transform="matrix(0.946752,0,0,0.946752,-2021.21,11.5137)">
                    <path d="M2233.58,541.825C2222.26,553.148 2205.19,556.45 2190.46,550.166C2175.73,543.883 2166.3,529.277 2166.64,513.268C2166.71,510.142 2166.74,508.34 2166.74,508.34L2663.01,12.072L3159.28,508.34C3159.28,508.34 3159.32,510.142 3159.38,513.268C3159.72,529.277 3150.29,543.883 3135.56,550.166C3120.83,556.45 3103.77,553.148 3092.44,541.825C2955.62,405.002 2663.01,112.394 2663.01,112.394C2663.01,112.394 2370.4,405.002 2233.58,541.825Z"/>
                </g>
                <g transform="matrix(1,0,0,1,-2157.13,0)">
                    <path d="M3036.49,549.661L2657.13,170.302L2276.77,550.665L2276.77,910L2543.98,910L2543.98,660.82C2543.98,633.206 2566.36,610.82 2593.98,610.82L2720.28,610.82C2747.9,610.82 2770.28,633.206 2770.28,660.82L2770.28,910L3036.49,910L3036.49,549.661Z"/>
                </g>
            </g>
        </g>
    </g>
</svg>
