<?xml version="1.0" encoding="UTF-8" standalone="no"?>
<!DOCTYPE svg PUBLIC "-//W3C//DTD SVG 1.1//EN" "http://www.w3.org/Graphics/SVG/1.1/DTD/svg11.dtd">
<svg width="100%" height="100%" viewBox="0 0 1000 1000" version="1.1" xmlns="http://www.w3.org/2000/svg" xmlns:xlink="http://www.w3.org/1999/xlink" xml:space="preserve" xmlns:serif="http://www.serif.com/" style="fill-rule:evenodd;clip-rule:evenodd;stroke-linejoin:round;stroke-miterlimit:2;">
    <g transform="matrix(1,0,0,1,-4323.4,0)">
        <g id="discord" transform="matrix(1,0,0,1,4323.4,0)">
            <rect x="0" y="0" width="1000" height="1000" style="fill:none;"/>
            <clipPath id="_clip1">
                <rect x="0" y="0" width="1000" height="1000"/>
            </clipPath>
            <g clip-path="url(#_clip1)">
                <g transform="matrix(1,0,0,1,-4323.4,0)">
                    <path d="M4823.4,0C5099.36,0 5323.4,224.042 5323.4,500C5323.4,775.958 5099.36,1000 4823.4,1000C4547.44,1000 4323.4,775.958 4323.4,500C4323.4,224.042 4547.44,0 4823.4,0ZM4823.37,229.183C4889.44,229.183 5001.09,247.273 5021.6,256.213C4991.14,236.103 4874.27,183.157 4874.27,183.157C4945.83,180.183 5086.67,190.244 5137.18,217.474C5186.79,327.016 5206.07,568.967 5189.58,723.161C5098.27,794.539 4967.57,827.953 4913.77,830.929C4909.05,816.474 4865.47,702.79 4865.47,702.79C4930.9,697.04 5033.94,654.17 5056.38,618.868C4979.78,647.393 4901,658.133 4823.34,658.133C4745.66,658.133 4666.95,647.393 4590.36,618.868C4612.8,654.17 4715.83,697.04 4781.26,702.79C4781.26,702.79 4737.69,816.474 4732.96,830.929C4679.17,827.953 4548.47,794.539 4457.16,723.161C4440.66,568.967 4459.95,327.016 4509.56,217.474C4560.06,190.244 4700.91,180.183 4772.46,183.157C4772.46,183.157 4655.59,236.103 4625.14,256.213C4645.64,247.273 4757.29,229.183 4823.37,229.183Z"/>
                </g>
                <g transform="matrix(1.01751,0,0,1.01751,-4327.91,65.1284)">
                    <circle cx="4894.26" cy="386.287" r="86.562"/>
                </g>
                <g transform="matrix(1.01751,0,0,1.01751,-4632.71,65.1284)">
                    <circle cx="4894.26" cy="386.287" r="86.562"/>
                </g>
            </g>
        </g>
    </g>
</svg>
