<?xml version="1.0" encoding="UTF-8" standalone="no"?>
<!DOCTYPE svg PUBLIC "-//W3C//DTD SVG 1.1//EN" "http://www.w3.org/Graphics/SVG/1.1/DTD/svg11.dtd">
<svg width="100%" height="100%" viewBox="0 0 1000 1000" version="1.1" xmlns="http://www.w3.org/2000/svg" xmlns:xlink="http://www.w3.org/1999/xlink" xml:space="preserve" xmlns:serif="http://www.serif.com/" style="fill-rule:evenodd;clip-rule:evenodd;stroke-linejoin:round;stroke-miterlimit:2;">
    <rect id="email" x="0" y="0" width="1000" height="1000" style="fill:none;"/>
    <clipPath id="_clip1">
        <rect id="email1" serif:id="email" x="0" y="0" width="1000" height="1000"/>
    </clipPath>
    <g clip-path="url(#_clip1)">
        <path d="M1000,207C1000,207 634.91,462.563 528.673,536.929C511.457,548.98 488.543,548.98 471.327,536.929C365.09,462.563 0,207 0,207L0,800C-0,813.261 5.268,825.979 14.645,835.355C24.021,844.732 36.739,850 50,850C220.701,850 779.299,850 950,850C963.261,850 975.979,844.732 985.355,835.355C994.732,825.979 1000,813.261 1000,800C1000,648.848 1000,207 1000,207Z"/>
        <path d="M1000,152L1000,150L0,150L0,152C0,152 365.09,407.563 471.327,481.929C488.543,493.98 511.457,493.98 528.673,481.929C634.91,407.563 1000,152 1000,152Z"/>
    </g>
</svg>
