<?xml version="1.0" encoding="UTF-8" standalone="no"?>
<!DOCTYPE svg PUBLIC "-//W3C//DTD SVG 1.1//EN" "http://www.w3.org/Graphics/SVG/1.1/DTD/svg11.dtd">
<svg width="100%" height="100%" viewBox="0 0 1000 1000" version="1.1" xmlns="http://www.w3.org/2000/svg" xmlns:xlink="http://www.w3.org/1999/xlink" xml:space="preserve" xmlns:serif="http://www.serif.com/" style="fill-rule:evenodd;clip-rule:evenodd;stroke-linejoin:round;stroke-miterlimit:2;">
    <g transform="matrix(1,0,0,1,-3232.39,0)">
        <g id="github" transform="matrix(1,0,0,1,3232.39,0)">
            <rect x="0" y="0" width="1000" height="1000" style="fill:none;"/>
            <g transform="matrix(1,0,0,1,-3232.39,0)">
                <path d="M3732.39,1000C3732.39,1000 3732.39,1000 3732.39,1000ZM3614.85,986.08C3395.52,933.149 3232.39,735.475 3232.39,500C3232.39,224.042 3456.44,0 3732.39,0C4008.35,0 4232.39,224.042 4232.39,500C4232.39,735.475 4069.26,933.149 3849.94,986.08L3849.94,775.766C3849.94,749.893 3832.6,721.06 3813.89,703.186C3883.6,703.186 4030.26,647.008 4030.26,471.671C4030.26,415.91 3996.31,354.741 3978.8,335.707C3995.53,293.894 3982.38,227.203 3973.6,205.298C3930.44,203.169 3869.04,236.013 3845.4,258.169C3800.41,244.06 3770.06,241.411 3732.39,241.411C3694.73,241.411 3664.37,244.06 3619.39,258.169C3595.75,236.013 3534.35,203.169 3491.19,205.298C3482.41,227.203 3469.26,293.894 3485.99,335.707C3468.48,354.741 3434.53,415.91 3434.53,471.671C3434.53,647.008 3581.18,703.186 3650.89,703.186C3632.21,721.042 3614.88,749.835 3614.85,775.691C3603.08,778.777 3591.82,780.399 3577.39,779.411C3512.48,774.962 3537.93,682.998 3424.09,678.525C3424.4,682.045 3428.38,731.775 3428.6,735.877C3489.85,735.02 3474.94,850.8 3614.85,834.95L3614.85,986.08Z"/>
            </g>
        </g>
    </g>
</svg>
