<?xml version="1.0" encoding="UTF-8" standalone="no"?>
<!DOCTYPE svg PUBLIC "-//W3C//DTD SVG 1.1//EN" "http://www.w3.org/Graphics/SVG/1.1/DTD/svg11.dtd">
<svg width="100%" height="100%" viewBox="0 0 240 45" version="1.1" xmlns="http://www.w3.org/2000/svg" xmlns:xlink="http://www.w3.org/1999/xlink" xml:space="preserve" xmlns:serif="http://www.serif.com/" style="fill-rule:evenodd;clip-rule:evenodd;stroke-linejoin:round;stroke-miterlimit:2;">
    <g id="Artboard2" transform="matrix(1.06399,0,0,0.800475,0,-11.8165)">
        <rect x="0" y="14.762" width="225.566" height="56.217" style="fill:none;"/>
        <g transform="matrix(1.33229,0,0,1.77089,-3.69857,-45.0061)">
            <g transform="matrix(42.3265,0,0,42.3265,59.3801,63.0967)">
                <path d="M0.123,-0.216C0.164,-0.297 0.232,-0.355 0.25,-0.341C0.26,-0.333 0.237,-0.284 0.209,-0.248C0.189,-0.221 0.162,-0.192 0.136,-0.192C0.129,-0.192 0.122,-0.194 0.114,-0.198C0.116,-0.203 0.118,-0.207 0.123,-0.216ZM0.681,-0.157C0.671,-0.179 0.656,-0.175 0.647,-0.156C0.617,-0.086 0.56,-0.025 0.524,-0.025C0.51,-0.025 0.502,-0.042 0.502,-0.068C0.502,-0.08 0.505,-0.098 0.509,-0.111C0.527,-0.162 0.576,-0.23 0.619,-0.28C0.631,-0.293 0.636,-0.306 0.636,-0.318C0.636,-0.343 0.619,-0.37 0.606,-0.387C0.594,-0.403 0.58,-0.396 0.564,-0.386C0.531,-0.365 0.505,-0.351 0.477,-0.344C0.488,-0.377 0.496,-0.407 0.496,-0.428C0.496,-0.45 0.488,-0.463 0.467,-0.463C0.433,-0.462 0.366,-0.389 0.366,-0.336C0.366,-0.318 0.376,-0.303 0.394,-0.292C0.341,-0.17 0.237,-0.026 0.137,-0.026C0.109,-0.026 0.091,-0.056 0.091,-0.102C0.091,-0.12 0.094,-0.141 0.1,-0.161C0.123,-0.145 0.147,-0.139 0.171,-0.139C0.215,-0.139 0.253,-0.164 0.282,-0.2C0.309,-0.235 0.324,-0.276 0.324,-0.305C0.324,-0.317 0.32,-0.329 0.315,-0.338C0.299,-0.358 0.28,-0.373 0.253,-0.39C0.243,-0.396 0.232,-0.398 0.219,-0.398C0.162,-0.398 0.08,-0.342 0.028,-0.24C0.008,-0.2 -0.002,-0.16 -0.002,-0.125C-0.002,-0.046 0.049,0.014 0.141,0.013C0.263,0.011 0.37,-0.111 0.452,-0.282C0.474,-0.283 0.499,-0.287 0.526,-0.299C0.486,-0.252 0.447,-0.197 0.43,-0.143C0.423,-0.122 0.42,-0.104 0.42,-0.088C0.42,-0.029 0.455,0.015 0.518,0.015C0.577,0.015 0.651,-0.028 0.676,-0.09C0.689,-0.118 0.686,-0.146 0.681,-0.157Z" style="fill-rule:nonzero;"/>
            </g>
            <text x="3.128px" y="63.097px" style="font-family:'SignPainter-HouseScriptSemibold', 'SignPainter';font-size:42.327px;">am<tspan x="44.058px " y="63.097px ">b</tspan></text>
            <text x="86.681px" y="63.097px" style="font-family:'SignPainter-HouseScriptSemibold', 'SignPainter';font-size:57.846px;">swc</text>
            <text x="150.485px" y="63.097px" style="font-family:'SignPainter-HouseScriptSemibold', 'SignPainter';font-size:45.854px;">x</text>
        </g>
    </g>
</svg>
