<?xml version="1.0" encoding="UTF-8" standalone="no"?>
<!DOCTYPE svg PUBLIC "-//W3C//DTD SVG 1.1//EN" "http://www.w3.org/Graphics/SVG/1.1/DTD/svg11.dtd">
<svg width="100%" height="100%" viewBox="0 0 1000 1000" version="1.1" xmlns="http://www.w3.org/2000/svg" xmlns:xlink="http://www.w3.org/1999/xlink" xml:space="preserve" xmlns:serif="http://www.serif.com/" style="fill-rule:evenodd;clip-rule:evenodd;stroke-linejoin:round;stroke-miterlimit:2;">
    <g transform="matrix(1,0,0,1,-1075.48,0)">
        <g id="phone" transform="matrix(1,0,0,1,1075.48,0)">
            <rect x="0" y="0" width="1000" height="1000" style="fill:none;"/>
            <clipPath id="_clip1">
                <rect x="0" y="0" width="1000" height="1000"/>
            </clipPath>
            <g clip-path="url(#_clip1)">
                <g transform="matrix(1,0,0,1,-1075.48,0)">
                    <path d="M1900.48,50C1900.48,36.739 1895.21,24.021 1885.83,14.645C1876.46,5.268 1863.74,-0 1850.48,-0L1300.48,0C1287.22,-0 1274.5,5.268 1265.12,14.645C1255.75,24.021 1250.48,36.739 1250.48,50L1250.48,950C1250.48,963.261 1255.75,975.979 1265.12,985.355C1274.5,994.732 1287.22,1000 1300.48,1000L1850.48,1000C1863.74,1000 1876.46,994.732 1885.83,985.355C1895.21,975.979 1900.48,963.261 1900.48,950L1900.48,50ZM1731.23,43.145L1731.23,64.893C1731.23,76.831 1721.54,86.523 1709.6,86.523L1441.35,86.523C1429.42,86.523 1419.72,76.831 1419.72,64.893L1419.72,43.145L1318.97,43.145C1305.16,43.145 1293.97,54.338 1293.97,68.145L1293.97,938.145C1293.97,944.776 1296.61,951.135 1301.3,955.823C1305.98,960.512 1312.34,963.145 1318.97,963.145C1413.01,963.145 1744.93,963.145 1838.97,963.145C1845.6,963.145 1851.96,960.512 1856.65,955.823C1861.34,951.135 1863.97,944.776 1863.97,938.145C1863.97,806.98 1863.97,199.311 1863.97,68.145C1863.97,61.515 1861.34,55.156 1856.65,50.468C1851.96,45.779 1845.6,43.145 1838.97,43.145L1731.23,43.145Z"/>
                </g>
                <g>
                    <g transform="matrix(1,0,0,1,-1080.28,0)">
                        <path d="M1822.24,212.926C1822.24,209.656 1819.59,207 1816.32,207L1344.24,207C1340.97,207 1338.31,209.656 1338.31,212.926L1338.31,224.779C1338.31,228.05 1340.97,230.706 1344.24,230.706L1816.32,230.706C1819.59,230.706 1822.24,228.05 1822.24,224.779L1822.24,212.926Z"/>
                    </g>
                    <g transform="matrix(1,0,0,1,-1080.28,41.7139)">
                        <path d="M1822.24,212.926C1822.24,209.656 1819.59,207 1816.32,207L1344.24,207C1340.97,207 1338.31,209.656 1338.31,212.926L1338.31,224.779C1338.31,228.05 1340.97,230.706 1344.24,230.706L1816.32,230.706C1819.59,230.706 1822.24,228.05 1822.24,224.779L1822.24,212.926Z"/>
                    </g>
                    <g transform="matrix(1,0,0,1,-1080.28,82.5559)">
                        <path d="M1822.24,212.926C1822.24,209.656 1819.59,207 1816.32,207L1344.24,207C1340.97,207 1338.31,209.656 1338.31,212.926L1338.31,224.779C1338.31,228.05 1340.97,230.706 1344.24,230.706L1816.32,230.706C1819.59,230.706 1822.24,228.05 1822.24,224.779L1822.24,212.926Z"/>
                    </g>
                    <g transform="matrix(0.518437,0,0,1,-435.796,124.246)">
                        <path d="M1822.24,212.926C1822.24,209.656 1817.12,207 1810.81,207L1349.74,207C1343.43,207 1338.31,209.656 1338.31,212.926L1338.31,224.779C1338.31,228.05 1343.43,230.706 1349.74,230.706L1810.81,230.706C1817.12,230.706 1822.24,228.05 1822.24,224.779L1822.24,212.926Z"/>
                    </g>
                    <g transform="matrix(0.429635,0,0,1,-40.9337,124.246)">
                        <path d="M1822.24,212.926C1822.24,209.656 1816.06,207 1808.45,207L1352.11,207C1344.49,207 1338.31,209.656 1338.31,212.926L1338.31,224.779C1338.31,228.05 1344.49,230.706 1352.11,230.706L1808.45,230.706C1816.06,230.706 1822.24,228.05 1822.24,224.779L1822.24,212.926Z"/>
                    </g>
                    <g transform="matrix(0.431873,0,0,1,-319.947,165.936)">
                        <path d="M1822.24,212.926C1822.24,209.656 1816.1,207 1808.52,207L1352.04,207C1344.46,207 1338.31,209.656 1338.31,212.926L1338.31,224.779C1338.31,228.05 1344.46,230.706 1352.04,230.706L1808.52,230.706C1816.1,230.706 1822.24,228.05 1822.24,224.779L1822.24,212.926Z"/>
                    </g>
                    <g transform="matrix(0.53556,0,0,1,-233.956,165.936)">
                        <path d="M1822.24,212.926C1822.24,209.656 1817.29,207 1811.18,207L1349.38,207C1343.27,207 1338.31,209.656 1338.31,212.926L1338.31,224.779C1338.31,228.05 1343.27,230.706 1349.38,230.706L1811.18,230.706C1817.29,230.706 1822.24,228.05 1822.24,224.779L1822.24,212.926Z"/>
                    </g>
                    <g transform="matrix(1,0,0,1,-1080.28,207.627)">
                        <path d="M1822.24,212.926C1822.24,209.656 1819.59,207 1816.32,207L1344.24,207C1340.97,207 1338.31,209.656 1338.31,212.926L1338.31,224.779C1338.31,228.05 1340.97,230.706 1344.24,230.706L1816.32,230.706C1819.59,230.706 1822.24,228.05 1822.24,224.779L1822.24,212.926Z"/>
                    </g>
                    <g transform="matrix(0.46444,0,0,1,-363.531,249.317)">
                        <path d="M1822.24,212.926C1822.24,209.656 1816.53,207 1809.48,207L1351.07,207C1344.03,207 1338.31,209.656 1338.31,212.926L1338.31,224.779C1338.31,228.05 1344.03,230.706 1351.07,230.706L1809.48,230.706C1816.53,230.706 1822.24,228.05 1822.24,224.779L1822.24,212.926Z"/>
                    </g>
                    <g transform="matrix(0.5,0,0,1,-169.156,249.317)">
                        <path d="M1822.24,212.926C1822.24,209.656 1816.93,207 1810.39,207L1350.17,207C1343.62,207 1338.31,209.656 1338.31,212.926L1338.31,224.779C1338.31,228.05 1343.62,230.706 1350.17,230.706L1810.39,230.706C1816.93,230.706 1822.24,228.05 1822.24,224.779L1822.24,212.926Z"/>
                    </g>
                    <g transform="matrix(0.134911,0,0,1,77.4807,291.007)">
                        <path d="M1822.24,212.926C1822.24,209.656 1802.56,207 1778.32,207L1382.24,207C1358,207 1338.31,209.656 1338.31,212.926L1338.31,224.779C1338.31,228.05 1358,230.706 1382.24,230.706L1778.32,230.706C1802.56,230.706 1822.24,228.05 1822.24,224.779L1822.24,212.926Z"/>
                    </g>
                    <g transform="matrix(0.834801,0,0,1,-779.245,291.007)">
                        <path d="M1822.24,212.926C1822.24,209.656 1819.06,207 1815.14,207L1345.41,207C1341.49,207 1338.31,209.656 1338.31,212.926L1338.31,224.779C1338.31,228.05 1341.49,230.706 1345.41,230.706L1815.14,230.706C1819.06,230.706 1822.24,228.05 1822.24,224.779L1822.24,212.926Z"/>
                    </g>
                    <g transform="matrix(0.570365,0,0,1,-505.293,332.698)">
                        <path d="M1822.24,212.926C1822.24,209.656 1817.59,207 1811.85,207L1348.7,207C1342.97,207 1338.31,209.656 1338.31,212.926L1338.31,224.779C1338.31,228.05 1342.97,230.706 1348.7,230.706L1811.85,230.706C1817.59,230.706 1822.24,228.05 1822.24,224.779L1822.24,212.926Z"/>
                    </g>
                    <g transform="matrix(0.3953,0,0,1,21.6328,332.698)">
                        <path d="M1822.24,212.926C1822.24,209.656 1815.53,207 1807.25,207L1353.31,207C1345.03,207 1338.31,209.656 1338.31,212.926L1338.31,224.779C1338.31,228.05 1345.03,230.706 1353.31,230.706L1807.25,230.706C1815.53,230.706 1822.24,228.05 1822.24,224.779L1822.24,212.926Z"/>
                    </g>
                    <g transform="matrix(1,0,0,1,-1080.28,374.388)">
                        <path d="M1822.24,212.926C1822.24,209.656 1819.59,207 1816.32,207L1344.24,207C1340.97,207 1338.31,209.656 1338.31,212.926L1338.31,224.779C1338.31,228.05 1340.97,230.706 1344.24,230.706L1816.32,230.706C1819.59,230.706 1822.24,228.05 1822.24,224.779L1822.24,212.926Z"/>
                    </g>
                    <g transform="matrix(1,0,0,1,-1080.28,416.078)">
                        <path d="M1822.24,212.926C1822.24,209.656 1819.59,207 1816.32,207L1344.24,207C1340.97,207 1338.31,209.656 1338.31,212.926L1338.31,224.779C1338.31,228.05 1340.97,230.706 1344.24,230.706L1816.32,230.706C1819.59,230.706 1822.24,228.05 1822.24,224.779L1822.24,212.926Z"/>
                    </g>
                    <g transform="matrix(0.352758,0,0,1,-214.066,457.769)">
                        <path d="M1822.24,212.926C1822.24,209.656 1814.72,207 1805.44,207L1355.11,207C1345.84,207 1338.31,209.656 1338.31,212.926L1338.31,224.779C1338.31,228.05 1345.84,230.706 1355.11,230.706L1805.44,230.706C1814.72,230.706 1822.24,228.05 1822.24,224.779L1822.24,212.926Z"/>
                    </g>
                    <g transform="matrix(0.611267,0,0,1,-371.912,457.769)">
                        <path d="M1822.24,212.926C1822.24,209.656 1817.9,207 1812.55,207L1348.01,207C1342.66,207 1338.31,209.656 1338.31,212.926L1338.31,224.779C1338.31,228.05 1342.66,230.706 1348.01,230.706L1812.55,230.706C1817.9,230.706 1822.24,228.05 1822.24,224.779L1822.24,212.926Z"/>
                    </g>
                    <g transform="matrix(0.477374,0,0,1,-380.841,499.459)">
                        <path d="M1822.24,212.926C1822.24,209.656 1816.68,207 1809.83,207L1350.73,207C1343.88,207 1338.31,209.656 1338.31,212.926L1338.31,224.779C1338.31,228.05 1343.88,230.706 1350.73,230.706L1809.83,230.706C1816.68,230.706 1822.24,228.05 1822.24,224.779L1822.24,212.926Z"/>
                    </g>
                    <g transform="matrix(0.5,0,0,1,-169.156,499.459)">
                        <path d="M1822.24,212.926C1822.24,209.656 1816.93,207 1810.39,207L1350.17,207C1343.62,207 1338.31,209.656 1338.31,212.926L1338.31,224.779C1338.31,228.05 1343.62,230.706 1350.17,230.706L1810.39,230.706C1816.93,230.706 1822.24,228.05 1822.24,224.779L1822.24,212.926Z"/>
                    </g>
                    <g transform="matrix(1,0,0,1,-1080.28,541.149)">
                        <path d="M1822.24,212.926C1822.24,209.656 1819.59,207 1816.32,207L1344.24,207C1340.97,207 1338.31,209.656 1338.31,212.926L1338.31,224.779C1338.31,228.05 1340.97,230.706 1344.24,230.706L1816.32,230.706C1819.59,230.706 1822.24,228.05 1822.24,224.779L1822.24,212.926Z"/>
                    </g>
                    <g transform="matrix(1,0,0,1,-1080.28,582.839)">
                        <path d="M1822.24,212.926C1822.24,209.656 1819.59,207 1816.32,207L1344.24,207C1340.97,207 1338.31,209.656 1338.31,212.926L1338.31,224.779C1338.31,228.05 1340.97,230.706 1344.24,230.706L1816.32,230.706C1819.59,230.706 1822.24,228.05 1822.24,224.779L1822.24,212.926Z"/>
                    </g>
                    <g transform="matrix(1,0,0,1,-1080.28,624.53)">
                        <path d="M1822.24,212.926C1822.24,209.656 1819.59,207 1816.32,207L1344.24,207C1340.97,207 1338.31,209.656 1338.31,212.926L1338.31,224.779C1338.31,228.05 1340.97,230.706 1344.24,230.706L1816.32,230.706C1819.59,230.706 1822.24,228.05 1822.24,224.779L1822.24,212.926Z"/>
                    </g>
                </g>
            </g>
        </g>
    </g>
</svg>
